<?xml version="1.0" encoding="UTF-8"?><svg id="_图层_1" xmlns="http://www.w3.org/2000/svg" viewBox="0 0 300 300"><defs><style>.cls-1{fill:#f0f;stroke-width:0px;}.cls-2{fill:none;stroke:#f0f;stroke-miterlimit:10;stroke-width:10px;}</style></defs><path class="cls-1" d="M150,26.11l131.51,95.55-50.23,154.6H68.72S18.49,121.65,18.49,121.65L150,26.11M150,15.6c-1.62,0-3.24.5-4.61,1.5L11.35,114.48c-2.75,2-3.9,5.54-2.85,8.77l51.2,157.58c1.05,3.23,4.06,5.42,7.46,5.42h165.69c3.4,0,6.41-2.19,7.46-5.42l51.2-157.58c1.05-3.23-.1-6.77-2.85-8.77L154.61,17.1c-1.38-1-2.99-1.5-4.61-1.5h0Z"/><line class="cls-2" x1="150.5" y1="17.5" x2="149.5" y2="164.5"/><line class="cls-2" x1="289.5" y1="119.5" x2="149.5" y2="164.5"/><line class="cls-2" x1="236.5" y1="282.5" x2="149.5" y2="164.5"/><line class="cls-2" x1="149.5" y1="164.5" x2="63.5" y2="282.5"/><line class="cls-2" x1="149.5" y1="164.5" x2="10.5" y2="119.5"/><line class="cls-2" x1="15" y1="120" x2="283" y2="120"/><line class="cls-2" x1="150" y1="22" x2="66" y2="279"/><line class="cls-2" x1="15" y1="121" x2="234" y2="279"/><line class="cls-2" x1="286" y1="121" x2="66" y2="279"/><line class="cls-2" x1="234" y1="279" x2="150" y2="22"/></svg>